<svg xmlns="http://www.w3.org/2000/svg" width="52" height="53" viewBox="0 0 52 53" fill="none">
  <path d="M42.8267 15.6122L42.8268 15.6123C42.9914 15.7769 43.0826 15.9965 43.0826 16.225V47.4157C43.0826 47.8967 42.6951 48.2841 42.2141 48.2841H9.84502C9.36402 48.2841 8.97656 47.8967 8.97656 47.4157V5.33583C8.97656 4.85484 9.36402 4.46738 9.84502 4.46738H31.3249C31.5559 4.46738 31.7798 4.56026 31.9426 4.723C31.9426 4.72305 31.9427 4.72309 31.9427 4.72313L42.8267 15.6122ZM23.138 22.8354C23.138 21.3034 21.8969 20.0623 20.365 20.0623C18.833 20.0623 17.5919 21.3034 17.5919 22.8354C17.5919 24.3673 18.833 25.6084 20.365 25.6084C21.8969 25.6084 23.138 24.3673 23.138 22.8354ZM16.7235 36.4319H35.3357C36.2813 36.4319 36.8516 35.3268 36.2296 34.5605L29.3311 25.7668C29.331 25.7666 29.3308 25.7665 29.3307 25.7663C29.3306 25.7662 29.3306 25.7662 29.3306 25.7662C29.2226 25.6285 29.0848 25.5171 28.9276 25.4405C28.77 25.3637 28.5971 25.3238 28.4218 25.3238C28.2466 25.3238 28.0737 25.3637 27.9161 25.4405C27.7586 25.5172 27.6206 25.6288 27.5126 25.7668L24.365 29.7802C24.2649 29.9078 24.0717 29.9078 23.9716 29.7802L22.6803 28.1338C22.5723 27.9958 22.4343 27.8842 22.2767 27.8075C22.1192 27.7307 21.9463 27.6908 21.771 27.6908C21.5958 27.6908 21.4228 27.7307 21.2653 27.8075C21.1078 27.8842 20.9698 27.9958 20.8617 28.1338L15.8159 34.5651C15.8156 34.5653 15.8154 34.5656 15.8152 34.5659C15.2206 35.3215 15.7594 36.4319 16.7235 36.4319ZM29.8315 15.9685C29.8315 16.935 30.615 17.7185 31.5815 17.7185H37.6858C39.2449 17.7185 40.0257 15.8335 38.9232 14.731L32.8189 8.62672C31.7165 7.52428 29.8315 8.30507 29.8315 9.86415V15.9685Z" stroke="#B3B3B3" stroke-width="1.5"/>
</svg>