<svg xmlns="http://www.w3.org/2000/svg" width="14" height="8" viewBox="0 0 14 8" fill="none">
<path clip-rule="evenodd" d="M6.82855 5.24246L1.87873 0.292768C1.4882 -0.0977512 0.855034 -0.0977431 0.464515 0.292786C0.0739953 0.683315 0.0740037 1.31648 0.464533 1.707L6.11135 7.35368C6.11467 7.35708 6.11801 7.36047 6.12138 7.36384C6.41505 7.65752 6.84593 7.73035 7.20766 7.58234C7.327 7.53353 7.43882 7.46068 7.5357 7.36379C7.53788 7.36162 7.54005 7.35943 7.5422 7.35723L13.1924 1.70699C13.583 1.31647 13.583 0.683301 13.1924 0.292777C12.8019 -0.0977474 12.1688 -0.0977479 11.7782 0.292777L6.82855 5.24246Z" fill="black"/>
</svg>