<svg xmlns="http://www.w3.org/2000/svg" width="14" height="8" viewBox="0 0 14 8" fill="none">
  <path fill-rule="evenodd" clip-rule="evenodd" d="M7.34308 2.58615L12.2929 7.53584C12.6834 7.92636 13.3166 7.92636 13.7071 7.53583C14.0976 7.1453 14.0976 6.51213 13.7071 6.12161L8.06028 0.474935C8.05697 0.471528 8.05362 0.468139 8.05025 0.464768C7.75658 0.171097 7.3257 0.098264 6.96397 0.24627C6.84463 0.295084 6.73281 0.367933 6.63593 0.464818C6.63375 0.466997 6.63158 0.469184 6.62943 0.471378L0.979185 6.12162C0.588661 6.51215 0.588661 7.14531 0.979185 7.53584C1.36971 7.92636 2.00287 7.92636 2.3934 7.53584L7.34308 2.58615Z" fill="black"/>
</svg>