<svg xmlns="http://www.w3.org/2000/svg" width="16" height="16" viewBox="0 0 16 16" fill="none">
  <path d="M5.525 4.775L7.25 3.05V10.25C7.25 10.7 7.55 11 8 11C8.45 11 8.75 10.7 8.75 10.25V3.05L10.475 4.775C10.775 5.075 11.225 5.075 11.525 4.775C11.825 4.475 11.825 4.025 11.525 3.725L8.525 0.724999C8.45 0.649999 8.375 0.574999 8.3 0.574999C8.15 0.499999 7.925 0.499999 7.7 0.574999C7.625 0.574999 7.55 0.649999 7.475 0.724999L4.475 3.725C4.175 4.025 4.175 4.475 4.475 4.775C4.775 5.075 5.225 5.075 5.525 4.775ZM14.75 9.5C14.3 9.5 14 9.8 14 10.25V13.25C14 13.7 13.7 14 13.25 14H2.75C2.3 14 2 13.7 2 13.25V10.25C2 9.8 1.7 9.5 1.25 9.5C0.8 9.5 0.5 9.8 0.5 10.25V13.25C0.5 14.525 1.475 15.5 2.75 15.5H13.25C14.525 15.5 15.5 14.525 15.5 13.25V10.25C15.5 9.8 15.2 9.5 14.75 9.5Z" fill="#F7F8F8"/>
</svg>